<mxfile host="app.diagrams.net" modified="2024-06-25T04:49:57.186Z" agent="Mozilla/5.0 (Windows NT 10.0; Win64; x64) AppleWebKit/537.36 (KHTML, like Gecko) Chrome/125.0.0.0 Safari/537.36 Edg/125.0.0.0" etag="xEt-ywDG2xSYHksKAS6R" version="24.6.2" type="github">
  <diagram name="第 1 页" id="r3UGkL9LIauUfXsUyBIE">
    <mxGraphModel dx="3365" dy="3108" grid="1" gridSize="10" guides="1" tooltips="1" connect="1" arrows="1" fold="1" page="1" pageScale="1" pageWidth="2000" pageHeight="1200" math="0" shadow="0">
      <root>
        <mxCell id="0" />
        <mxCell id="1" parent="0" />
        <mxCell id="rH_akTSNDyo1jkgqadfu-83" value="" style="rounded=1;whiteSpace=wrap;html=1;fillColor=#f5f5f5;fontColor=#333333;strokeColor=#666666;strokeWidth=3;shadow=1;" vertex="1" parent="1">
          <mxGeometry x="1320" y="-990" width="650" height="770" as="geometry" />
        </mxCell>
        <mxCell id="rH_akTSNDyo1jkgqadfu-82" value="" style="rounded=1;whiteSpace=wrap;html=1;fillColor=#f5f5f5;fontColor=#333333;strokeColor=#666666;strokeWidth=3;shadow=1;" vertex="1" parent="1">
          <mxGeometry x="640" y="-1150" width="650" height="930" as="geometry" />
        </mxCell>
        <mxCell id="rH_akTSNDyo1jkgqadfu-81" value="" style="rounded=1;whiteSpace=wrap;html=1;fillColor=#f5f5f5;fontColor=#333333;strokeColor=#666666;strokeWidth=3;shadow=1;" vertex="1" parent="1">
          <mxGeometry x="20" y="-1180" width="590" height="960" as="geometry" />
        </mxCell>
        <mxCell id="rH_akTSNDyo1jkgqadfu-1" value="&lt;font style=&quot;font-size: 28px;&quot;&gt;&lt;b&gt;X&lt;sub&gt;1&lt;/sub&gt;&lt;/b&gt;&lt;/font&gt;" style="rounded=1;whiteSpace=wrap;html=1;fillColor=#e1d5e7;strokeColor=#9673a6;shadow=1;strokeWidth=3;" vertex="1" parent="1">
          <mxGeometry x="60" y="-360" width="80" height="80" as="geometry" />
        </mxCell>
        <mxCell id="rH_akTSNDyo1jkgqadfu-2" value="&lt;font style=&quot;&quot;&gt;&lt;b style=&quot;&quot;&gt;&lt;span style=&quot;font-size: 28px;&quot;&gt;X&lt;/span&gt;&lt;span style=&quot;font-size: 23.3333px;&quot;&gt;&lt;sub&gt;2&lt;/sub&gt;&lt;/span&gt;&lt;/b&gt;&lt;/font&gt;" style="rounded=1;whiteSpace=wrap;html=1;fillColor=#e1d5e7;strokeColor=#9673a6;shadow=1;strokeWidth=3;" vertex="1" parent="1">
          <mxGeometry x="180" y="-360" width="80" height="80" as="geometry" />
        </mxCell>
        <mxCell id="rH_akTSNDyo1jkgqadfu-6" value="&lt;font style=&quot;font-size: 28px;&quot;&gt;&lt;b&gt;X&lt;sub&gt;1&lt;/sub&gt;&lt;/b&gt;&lt;/font&gt;" style="rounded=1;whiteSpace=wrap;html=1;fillColor=#e1d5e7;strokeColor=#9673a6;shadow=1;strokeWidth=3;" vertex="1" parent="1">
          <mxGeometry x="670" y="-360" width="80" height="80" as="geometry" />
        </mxCell>
        <mxCell id="rH_akTSNDyo1jkgqadfu-7" value="&lt;font style=&quot;font-size: 28px;&quot;&gt;&lt;b&gt;X&lt;sub&gt;2&lt;/sub&gt;&lt;/b&gt;&lt;/font&gt;" style="rounded=1;whiteSpace=wrap;html=1;fillColor=#e1d5e7;strokeColor=#9673a6;shadow=1;strokeWidth=3;" vertex="1" parent="1">
          <mxGeometry x="790" y="-360" width="80" height="80" as="geometry" />
        </mxCell>
        <mxCell id="rH_akTSNDyo1jkgqadfu-8" value="&lt;font style=&quot;font-size: 28px;&quot;&gt;&lt;b&gt;X&lt;sub&gt;3&lt;/sub&gt;&lt;/b&gt;&lt;/font&gt;" style="rounded=1;whiteSpace=wrap;html=1;fillColor=#e1d5e7;strokeColor=#9673a6;shadow=1;strokeWidth=3;" vertex="1" parent="1">
          <mxGeometry x="1070" y="-360" width="80" height="80" as="geometry" />
        </mxCell>
        <mxCell id="rH_akTSNDyo1jkgqadfu-9" value="&lt;font style=&quot;font-size: 28px;&quot;&gt;&lt;b&gt;X&lt;sub&gt;4&lt;/sub&gt;&lt;/b&gt;&lt;/font&gt;" style="rounded=1;whiteSpace=wrap;html=1;fillColor=#e1d5e7;strokeColor=#9673a6;shadow=1;strokeWidth=3;" vertex="1" parent="1">
          <mxGeometry x="1190" y="-360" width="80" height="80" as="geometry" />
        </mxCell>
        <mxCell id="rH_akTSNDyo1jkgqadfu-14" value="&lt;font style=&quot;font-size: 28px;&quot;&gt;&lt;b&gt;X&lt;sub&gt;1&lt;/sub&gt;&lt;/b&gt;&lt;/font&gt;" style="rounded=1;whiteSpace=wrap;html=1;fillColor=#e1d5e7;strokeColor=#9673a6;shadow=1;strokeWidth=3;" vertex="1" parent="1">
          <mxGeometry x="1365" y="-360" width="80" height="80" as="geometry" />
        </mxCell>
        <mxCell id="rH_akTSNDyo1jkgqadfu-15" value="&lt;font style=&quot;font-size: 28px;&quot;&gt;&lt;b&gt;X&lt;sub&gt;3&lt;/sub&gt;&lt;/b&gt;&lt;/font&gt;" style="rounded=1;whiteSpace=wrap;html=1;fillColor=#e1d5e7;strokeColor=#9673a6;shadow=1;strokeWidth=3;" vertex="1" parent="1">
          <mxGeometry x="1605" y="-360" width="80" height="80" as="geometry" />
        </mxCell>
        <mxCell id="rH_akTSNDyo1jkgqadfu-16" value="&lt;font style=&quot;font-size: 28px;&quot;&gt;&lt;b&gt;X&lt;sub&gt;4&lt;/sub&gt;&lt;/b&gt;&lt;/font&gt;" style="rounded=1;whiteSpace=wrap;html=1;fillColor=#e1d5e7;strokeColor=#9673a6;shadow=1;strokeWidth=3;" vertex="1" parent="1">
          <mxGeometry x="1735" y="-360" width="80" height="80" as="geometry" />
        </mxCell>
        <mxCell id="rH_akTSNDyo1jkgqadfu-17" value="&lt;font style=&quot;&quot;&gt;&lt;b style=&quot;&quot;&gt;&lt;span style=&quot;font-size: 28px;&quot;&gt;X&lt;/span&gt;&lt;span style=&quot;font-size: 23.3333px;&quot;&gt;2&lt;/span&gt;&lt;/b&gt;&lt;/font&gt;" style="rounded=1;whiteSpace=wrap;html=1;fillColor=#e1d5e7;strokeColor=#9673a6;shadow=1;strokeWidth=3;" vertex="1" parent="1">
          <mxGeometry x="1865" y="-360" width="80" height="80" as="geometry" />
        </mxCell>
        <mxCell id="rH_akTSNDyo1jkgqadfu-18" value="&lt;span style=&quot;font-size: 28px;&quot;&gt;&lt;b&gt;0&lt;/b&gt;&lt;/span&gt;" style="rounded=1;whiteSpace=wrap;html=1;fillColor=#e1d5e7;strokeColor=#9673a6;shadow=1;strokeWidth=3;" vertex="1" parent="1">
          <mxGeometry x="950" y="-360" width="80" height="80" as="geometry" />
        </mxCell>
        <mxCell id="rH_akTSNDyo1jkgqadfu-19" value="&lt;font style=&quot;font-size: 28px;&quot;&gt;&lt;b&gt;AND&lt;/b&gt;&lt;/font&gt;" style="ellipse;whiteSpace=wrap;html=1;fillColor=#fff2cc;strokeColor=#d6b656;strokeWidth=3;" vertex="1" parent="1">
          <mxGeometry x="40" y="-520" width="110" height="80" as="geometry" />
        </mxCell>
        <mxCell id="rH_akTSNDyo1jkgqadfu-20" value="&lt;font style=&quot;font-size: 28px;&quot;&gt;&lt;b&gt;AND&lt;/b&gt;&lt;/font&gt;" style="ellipse;whiteSpace=wrap;html=1;fillColor=#fff2cc;strokeColor=#d6b656;strokeWidth=3;" vertex="1" parent="1">
          <mxGeometry x="180" y="-520" width="110" height="80" as="geometry" />
        </mxCell>
        <mxCell id="rH_akTSNDyo1jkgqadfu-23" value="&lt;font style=&quot;font-size: 28px;&quot;&gt;&lt;b&gt;AND&lt;/b&gt;&lt;/font&gt;" style="ellipse;whiteSpace=wrap;html=1;fillColor=#fff2cc;strokeColor=#d6b656;strokeWidth=3;" vertex="1" parent="1">
          <mxGeometry x="355" y="-750" width="110" height="80" as="geometry" />
        </mxCell>
        <mxCell id="rH_akTSNDyo1jkgqadfu-24" value="&lt;font style=&quot;font-size: 28px;&quot;&gt;&lt;b&gt;AND&lt;/b&gt;&lt;/font&gt;" style="ellipse;whiteSpace=wrap;html=1;fillColor=#fff2cc;strokeColor=#d6b656;strokeWidth=3;" vertex="1" parent="1">
          <mxGeometry x="240" y="-870" width="110" height="80" as="geometry" />
        </mxCell>
        <mxCell id="rH_akTSNDyo1jkgqadfu-25" value="&lt;font style=&quot;font-size: 28px;&quot;&gt;&lt;b&gt;AND&lt;/b&gt;&lt;/font&gt;" style="ellipse;whiteSpace=wrap;html=1;fillColor=#fff2cc;strokeColor=#d6b656;strokeWidth=3;" vertex="1" parent="1">
          <mxGeometry x="165" y="-1020" width="110" height="80" as="geometry" />
        </mxCell>
        <mxCell id="rH_akTSNDyo1jkgqadfu-26" value="" style="endArrow=classic;html=1;rounded=0;strokeWidth=3;exitX=0.5;exitY=0;exitDx=0;exitDy=0;entryX=0.5;entryY=1;entryDx=0;entryDy=0;" edge="1" parent="1" source="rH_akTSNDyo1jkgqadfu-1" target="rH_akTSNDyo1jkgqadfu-19">
          <mxGeometry width="50" height="50" relative="1" as="geometry">
            <mxPoint x="450" y="-430" as="sourcePoint" />
            <mxPoint x="500" y="-480" as="targetPoint" />
          </mxGeometry>
        </mxCell>
        <mxCell id="rH_akTSNDyo1jkgqadfu-27" value="" style="endArrow=classic;html=1;rounded=0;strokeWidth=3;exitX=0.944;exitY=0.054;exitDx=0;exitDy=0;entryX=0;entryY=1;entryDx=0;entryDy=0;exitPerimeter=0;dashed=1;" edge="1" parent="1" source="rH_akTSNDyo1jkgqadfu-1" target="rH_akTSNDyo1jkgqadfu-20">
          <mxGeometry width="50" height="50" relative="1" as="geometry">
            <mxPoint x="110" y="-350" as="sourcePoint" />
            <mxPoint x="75" y="-430" as="targetPoint" />
          </mxGeometry>
        </mxCell>
        <mxCell id="rH_akTSNDyo1jkgqadfu-28" value="" style="endArrow=classic;html=1;rounded=0;strokeWidth=3;exitX=0.5;exitY=0;exitDx=0;exitDy=0;entryX=0.5;entryY=1;entryDx=0;entryDy=0;dashed=1;" edge="1" parent="1" source="rH_akTSNDyo1jkgqadfu-2" target="rH_akTSNDyo1jkgqadfu-20">
          <mxGeometry width="50" height="50" relative="1" as="geometry">
            <mxPoint x="110" y="-350" as="sourcePoint" />
            <mxPoint x="75" y="-430" as="targetPoint" />
          </mxGeometry>
        </mxCell>
        <mxCell id="rH_akTSNDyo1jkgqadfu-29" value="" style="endArrow=classic;html=1;rounded=0;strokeWidth=3;exitX=0.049;exitY=0.042;exitDx=0;exitDy=0;entryX=1;entryY=1;entryDx=0;entryDy=0;exitPerimeter=0;" edge="1" parent="1" source="rH_akTSNDyo1jkgqadfu-2" target="rH_akTSNDyo1jkgqadfu-19">
          <mxGeometry width="50" height="50" relative="1" as="geometry">
            <mxPoint x="230" y="-350" as="sourcePoint" />
            <mxPoint x="255" y="-430" as="targetPoint" />
          </mxGeometry>
        </mxCell>
        <mxCell id="rH_akTSNDyo1jkgqadfu-30" value="&lt;font style=&quot;font-size: 28px;&quot;&gt;&lt;b&gt;X&lt;sub&gt;1&lt;/sub&gt;&lt;/b&gt;&lt;/font&gt;" style="rounded=1;whiteSpace=wrap;html=1;fillColor=#e1d5e7;strokeColor=#9673a6;shadow=1;strokeWidth=3;" vertex="1" parent="1">
          <mxGeometry x="370" y="-360" width="80" height="80" as="geometry" />
        </mxCell>
        <mxCell id="rH_akTSNDyo1jkgqadfu-31" value="&lt;font style=&quot;&quot;&gt;&lt;b style=&quot;&quot;&gt;&lt;span style=&quot;font-size: 28px;&quot;&gt;X&lt;/span&gt;&lt;span style=&quot;font-size: 23.3333px;&quot;&gt;&lt;sub&gt;2&lt;/sub&gt;&lt;/span&gt;&lt;/b&gt;&lt;/font&gt;" style="rounded=1;whiteSpace=wrap;html=1;fillColor=#e1d5e7;strokeColor=#9673a6;shadow=1;strokeWidth=3;" vertex="1" parent="1">
          <mxGeometry x="490" y="-360" width="80" height="80" as="geometry" />
        </mxCell>
        <mxCell id="rH_akTSNDyo1jkgqadfu-32" value="&lt;font style=&quot;font-size: 28px;&quot;&gt;&lt;b&gt;AND&lt;/b&gt;&lt;/font&gt;" style="ellipse;whiteSpace=wrap;html=1;fillColor=#fff2cc;strokeColor=#d6b656;strokeWidth=3;" vertex="1" parent="1">
          <mxGeometry x="335" y="-520" width="110" height="80" as="geometry" />
        </mxCell>
        <mxCell id="rH_akTSNDyo1jkgqadfu-33" value="&lt;font style=&quot;font-size: 28px;&quot;&gt;&lt;b&gt;AND&lt;/b&gt;&lt;/font&gt;" style="ellipse;whiteSpace=wrap;html=1;fillColor=#fff2cc;strokeColor=#d6b656;strokeWidth=3;" vertex="1" parent="1">
          <mxGeometry x="490" y="-520" width="110" height="80" as="geometry" />
        </mxCell>
        <mxCell id="rH_akTSNDyo1jkgqadfu-34" value="" style="endArrow=classic;html=1;rounded=0;strokeWidth=3;exitX=0.5;exitY=0;exitDx=0;exitDy=0;entryX=0.5;entryY=1;entryDx=0;entryDy=0;dashed=1;" edge="1" parent="1" source="rH_akTSNDyo1jkgqadfu-30" target="rH_akTSNDyo1jkgqadfu-32">
          <mxGeometry width="50" height="50" relative="1" as="geometry">
            <mxPoint x="760" y="-430" as="sourcePoint" />
            <mxPoint x="810" y="-480" as="targetPoint" />
          </mxGeometry>
        </mxCell>
        <mxCell id="rH_akTSNDyo1jkgqadfu-35" value="" style="endArrow=classic;html=1;rounded=0;strokeWidth=3;exitX=0.944;exitY=0.054;exitDx=0;exitDy=0;entryX=0;entryY=1;entryDx=0;entryDy=0;exitPerimeter=0;" edge="1" parent="1" source="rH_akTSNDyo1jkgqadfu-30" target="rH_akTSNDyo1jkgqadfu-33">
          <mxGeometry width="50" height="50" relative="1" as="geometry">
            <mxPoint x="420" y="-350" as="sourcePoint" />
            <mxPoint x="385" y="-430" as="targetPoint" />
          </mxGeometry>
        </mxCell>
        <mxCell id="rH_akTSNDyo1jkgqadfu-36" value="" style="endArrow=classic;html=1;rounded=0;strokeWidth=3;exitX=0.5;exitY=0;exitDx=0;exitDy=0;entryX=0.5;entryY=1;entryDx=0;entryDy=0;dashed=1;" edge="1" parent="1" source="rH_akTSNDyo1jkgqadfu-31" target="rH_akTSNDyo1jkgqadfu-33">
          <mxGeometry width="50" height="50" relative="1" as="geometry">
            <mxPoint x="420" y="-350" as="sourcePoint" />
            <mxPoint x="385" y="-430" as="targetPoint" />
          </mxGeometry>
        </mxCell>
        <mxCell id="rH_akTSNDyo1jkgqadfu-37" value="" style="endArrow=classic;html=1;rounded=0;strokeWidth=3;exitX=0.049;exitY=0.042;exitDx=0;exitDy=0;entryX=1;entryY=1;entryDx=0;entryDy=0;exitPerimeter=0;" edge="1" parent="1" source="rH_akTSNDyo1jkgqadfu-31" target="rH_akTSNDyo1jkgqadfu-32">
          <mxGeometry width="50" height="50" relative="1" as="geometry">
            <mxPoint x="540" y="-350" as="sourcePoint" />
            <mxPoint x="565" y="-430" as="targetPoint" />
          </mxGeometry>
        </mxCell>
        <mxCell id="rH_akTSNDyo1jkgqadfu-38" value="" style="endArrow=classic;html=1;rounded=0;strokeWidth=3;exitX=0.328;exitY=-0.007;exitDx=0;exitDy=0;entryX=0.802;entryY=0.914;entryDx=0;entryDy=0;dashed=1;entryPerimeter=0;exitPerimeter=0;" edge="1" parent="1" source="rH_akTSNDyo1jkgqadfu-33" target="rH_akTSNDyo1jkgqadfu-23">
          <mxGeometry width="50" height="50" relative="1" as="geometry">
            <mxPoint x="230" y="-350" as="sourcePoint" />
            <mxPoint x="255" y="-430" as="targetPoint" />
          </mxGeometry>
        </mxCell>
        <mxCell id="rH_akTSNDyo1jkgqadfu-39" value="" style="endArrow=classic;html=1;rounded=0;strokeWidth=3;exitX=0.5;exitY=0;exitDx=0;exitDy=0;entryX=0.326;entryY=0.989;entryDx=0;entryDy=0;dashed=1;entryPerimeter=0;" edge="1" parent="1" source="rH_akTSNDyo1jkgqadfu-32" target="rH_akTSNDyo1jkgqadfu-23">
          <mxGeometry width="50" height="50" relative="1" as="geometry">
            <mxPoint x="586" y="-511" as="sourcePoint" />
            <mxPoint x="498" y="-667" as="targetPoint" />
          </mxGeometry>
        </mxCell>
        <mxCell id="rH_akTSNDyo1jkgqadfu-40" value="" style="endArrow=classic;html=1;rounded=0;strokeWidth=3;exitX=0.5;exitY=0;exitDx=0;exitDy=0;entryX=0.334;entryY=0.989;entryDx=0;entryDy=0;dashed=1;entryPerimeter=0;" edge="1" parent="1" source="rH_akTSNDyo1jkgqadfu-20" target="rH_akTSNDyo1jkgqadfu-24">
          <mxGeometry width="50" height="50" relative="1" as="geometry">
            <mxPoint x="425" y="-510" as="sourcePoint" />
            <mxPoint x="446" y="-661" as="targetPoint" />
          </mxGeometry>
        </mxCell>
        <mxCell id="rH_akTSNDyo1jkgqadfu-41" value="" style="endArrow=classic;html=1;rounded=0;strokeWidth=3;exitX=0.5;exitY=0;exitDx=0;exitDy=0;entryX=0.335;entryY=1.01;entryDx=0;entryDy=0;dashed=1;entryPerimeter=0;" edge="1" parent="1" source="rH_akTSNDyo1jkgqadfu-19" target="rH_akTSNDyo1jkgqadfu-25">
          <mxGeometry width="50" height="50" relative="1" as="geometry">
            <mxPoint x="435" y="-500" as="sourcePoint" />
            <mxPoint x="456" y="-651" as="targetPoint" />
          </mxGeometry>
        </mxCell>
        <mxCell id="rH_akTSNDyo1jkgqadfu-42" value="" style="endArrow=classic;html=1;rounded=0;strokeWidth=3;entryX=1;entryY=1;entryDx=0;entryDy=0;dashed=1;exitX=0;exitY=0;exitDx=0;exitDy=0;" edge="1" parent="1" source="rH_akTSNDyo1jkgqadfu-23" target="rH_akTSNDyo1jkgqadfu-24">
          <mxGeometry width="50" height="50" relative="1" as="geometry">
            <mxPoint x="430" y="-750" as="sourcePoint" />
            <mxPoint x="446" y="-661" as="targetPoint" />
          </mxGeometry>
        </mxCell>
        <mxCell id="rH_akTSNDyo1jkgqadfu-43" value="" style="endArrow=classic;html=1;rounded=0;strokeWidth=3;exitX=0.5;exitY=0;exitDx=0;exitDy=0;entryX=1;entryY=1;entryDx=0;entryDy=0;dashed=1;" edge="1" parent="1" source="rH_akTSNDyo1jkgqadfu-24" target="rH_akTSNDyo1jkgqadfu-25">
          <mxGeometry width="50" height="50" relative="1" as="geometry">
            <mxPoint x="435" y="-500" as="sourcePoint" />
            <mxPoint x="456" y="-651" as="targetPoint" />
          </mxGeometry>
        </mxCell>
        <mxCell id="rH_akTSNDyo1jkgqadfu-44" value="&lt;font style=&quot;font-size: 28px;&quot;&gt;&lt;b&gt;MAJ&lt;/b&gt;&lt;/font&gt;&lt;span style=&quot;color: rgba(0, 0, 0, 0); font-family: monospace; font-size: 0px; text-align: start; text-wrap: nowrap;&quot;&gt;%3CmxGraphModel%3E%3Croot%3E%3CmxCell%20id%3D%220%22%2F%3E%3CmxCell%20id%3D%221%22%20parent%3D%220%22%2F%3E%3CmxCell%20id%3D%222%22%20value%3D%22%26lt%3Bfont%20style%3D%26quot%3Bfont-size%3A%2028px%3B%26quot%3B%26gt%3B%26lt%3Bb%26gt%3BAND%26lt%3B%2Fb%26gt%3B%26lt%3B%2Ffont%26gt%3B%22%20style%3D%22ellipse%3BwhiteSpace%3Dwrap%3Bhtml%3D1%3BfillColor%3D%23fff2cc%3BstrokeColor%3D%23d6b656%3BstrokeWidth%3D3%3B%22%20vertex%3D%221%22%20parent%3D%221%22%3E%3CmxGeometry%20x%3D%22-265%22%20y%3D%22500%22%20width%3D%22110%22%20height%3D%2280%22%20as%3D%22geometry%22%2F%3E%3C%2FmxCell%3E%3C%2Froot%3E%3C%2FmxGraphModel%3E&lt;/span&gt;" style="ellipse;whiteSpace=wrap;html=1;fillColor=#fff2cc;strokeColor=#d6b656;strokeWidth=3;" vertex="1" parent="1">
          <mxGeometry x="1010" y="-520" width="110" height="80" as="geometry" />
        </mxCell>
        <mxCell id="rH_akTSNDyo1jkgqadfu-47" value="&lt;font style=&quot;font-size: 28px;&quot;&gt;&lt;b&gt;MAJ&lt;/b&gt;&lt;/font&gt;&lt;span style=&quot;color: rgba(0, 0, 0, 0); font-family: monospace; font-size: 0px; text-align: start; text-wrap: nowrap;&quot;&gt;%3CmxGraphModel%3E%3Croot%3E%3CmxCell%20id%3D%220%22%2F%3E%3CmxCell%20id%3D%221%22%20parent%3D%220%22%2F%3E%3CmxCell%20id%3D%222%22%20value%3D%22%26lt%3Bfont%20style%3D%26quot%3Bfont-size%3A%2028px%3B%26quot%3B%26gt%3B%26lt%3Bb%26gt%3BAND%26lt%3B%2Fb%26gt%3B%26lt%3B%2Ffont%26gt%3B%22%20style%3D%22ellipse%3BwhiteSpace%3Dwrap%3Bhtml%3D1%3BfillColor%3D%23fff2cc%3BstrokeColor%3D%23d6b656%3BstrokeWidth%3D3%3B%22%20vertex%3D%221%22%20parent%3D%221%22%3E%3CmxGeometry%20x%3D%22-265%22%20y%3D%22500%22%20width%3D%22110%22%20height%3D%2280%22%20as%3D%22geometry%22%2F%3E%3C%2FmxCell%3E%3C%2Froot%3E%3C%2FmxGraphModel%3E&lt;/span&gt;" style="ellipse;whiteSpace=wrap;html=1;fillColor=#fff2cc;strokeColor=#d6b656;strokeWidth=3;" vertex="1" parent="1">
          <mxGeometry x="1140" y="-520" width="110" height="80" as="geometry" />
        </mxCell>
        <mxCell id="rH_akTSNDyo1jkgqadfu-48" value="&lt;font style=&quot;font-size: 28px;&quot;&gt;&lt;b&gt;MAJ&lt;/b&gt;&lt;/font&gt;&lt;span style=&quot;color: rgba(0, 0, 0, 0); font-family: monospace; font-size: 0px; text-align: start; text-wrap: nowrap;&quot;&gt;%3CmxGraphModel%3E%3Croot%3E%3CmxCell%20id%3D%220%22%2F%3E%3CmxCell%20id%3D%221%22%20parent%3D%220%22%2F%3E%3CmxCell%20id%3D%222%22%20value%3D%22%26lt%3Bfont%20style%3D%26quot%3Bfont-size%3A%2028px%3B%26quot%3B%26gt%3B%26lt%3Bb%26gt%3BAND%26lt%3B%2Fb%26gt%3B%26lt%3B%2Ffont%26gt%3B%22%20style%3D%22ellipse%3BwhiteSpace%3Dwrap%3Bhtml%3D1%3BfillColor%3D%23fff2cc%3BstrokeColor%3D%23d6b656%3BstrokeWidth%3D3%3B%22%20vertex%3D%221%22%20parent%3D%221%22%3E%3CmxGeometry%20x%3D%22-265%22%20y%3D%22500%22%20width%3D%22110%22%20height%3D%2280%22%20as%3D%22geometry%22%2F%3E%3C%2FmxCell%3E%3C%2Froot%3E%3C%2FmxGraphModel%3E&lt;/span&gt;" style="ellipse;whiteSpace=wrap;html=1;fillColor=#fff2cc;strokeColor=#d6b656;strokeWidth=3;" vertex="1" parent="1">
          <mxGeometry x="980" y="-750" width="110" height="80" as="geometry" />
        </mxCell>
        <mxCell id="rH_akTSNDyo1jkgqadfu-49" value="&lt;font style=&quot;font-size: 28px;&quot;&gt;&lt;b&gt;MAJ&lt;/b&gt;&lt;/font&gt;&lt;span style=&quot;color: rgba(0, 0, 0, 0); font-family: monospace; font-size: 0px; text-align: start; text-wrap: nowrap;&quot;&gt;%3CmxGraphModel%3E%3Croot%3E%3CmxCell%20id%3D%220%22%2F%3E%3CmxCell%20id%3D%221%22%20parent%3D%220%22%2F%3E%3CmxCell%20id%3D%222%22%20value%3D%22%26lt%3Bfont%20style%3D%26quot%3Bfont-size%3A%2028px%3B%26quot%3B%26gt%3B%26lt%3Bb%26gt%3BAND%26lt%3B%2Fb%26gt%3B%26lt%3B%2Ffont%26gt%3B%22%20style%3D%22ellipse%3BwhiteSpace%3Dwrap%3Bhtml%3D1%3BfillColor%3D%23fff2cc%3BstrokeColor%3D%23d6b656%3BstrokeWidth%3D3%3B%22%20vertex%3D%221%22%20parent%3D%221%22%3E%3CmxGeometry%20x%3D%22-265%22%20y%3D%22500%22%20width%3D%22110%22%20height%3D%2280%22%20as%3D%22geometry%22%2F%3E%3C%2FmxCell%3E%3C%2Froot%3E%3C%2FmxGraphModel%3E&lt;/span&gt;" style="ellipse;whiteSpace=wrap;html=1;fillColor=#fff2cc;strokeColor=#d6b656;strokeWidth=3;" vertex="1" parent="1">
          <mxGeometry x="880" y="-950" width="110" height="80" as="geometry" />
        </mxCell>
        <mxCell id="rH_akTSNDyo1jkgqadfu-50" value="" style="endArrow=classic;html=1;rounded=0;strokeWidth=3;entryX=0;entryY=1;entryDx=0;entryDy=0;exitX=0.969;exitY=0.057;exitDx=0;exitDy=0;exitPerimeter=0;" edge="1" parent="1" source="rH_akTSNDyo1jkgqadfu-18" target="rH_akTSNDyo1jkgqadfu-47">
          <mxGeometry width="50" height="50" relative="1" as="geometry">
            <mxPoint x="1030" y="-360" as="sourcePoint" />
            <mxPoint x="426" y="-442" as="targetPoint" />
          </mxGeometry>
        </mxCell>
        <mxCell id="rH_akTSNDyo1jkgqadfu-51" value="" style="endArrow=classic;html=1;rounded=0;strokeWidth=3;entryX=0.23;entryY=0.918;entryDx=0;entryDy=0;exitX=0.706;exitY=-0.004;exitDx=0;exitDy=0;exitPerimeter=0;entryPerimeter=0;" edge="1" parent="1" source="rH_akTSNDyo1jkgqadfu-18" target="rH_akTSNDyo1jkgqadfu-44">
          <mxGeometry width="50" height="50" relative="1" as="geometry">
            <mxPoint x="1038" y="-345" as="sourcePoint" />
            <mxPoint x="1206" y="-442" as="targetPoint" />
          </mxGeometry>
        </mxCell>
        <mxCell id="rH_akTSNDyo1jkgqadfu-52" value="" style="endArrow=classic;html=1;rounded=0;strokeWidth=3;entryX=0.196;entryY=0.871;entryDx=0;entryDy=0;exitX=0.25;exitY=0;exitDx=0;exitDy=0;entryPerimeter=0;dashed=1;" edge="1" parent="1" source="rH_akTSNDyo1jkgqadfu-18" target="rH_akTSNDyo1jkgqadfu-48">
          <mxGeometry width="50" height="50" relative="1" as="geometry">
            <mxPoint x="1048" y="-335" as="sourcePoint" />
            <mxPoint x="1216" y="-432" as="targetPoint" />
          </mxGeometry>
        </mxCell>
        <mxCell id="rH_akTSNDyo1jkgqadfu-53" value="" style="endArrow=classic;html=1;rounded=0;strokeWidth=3;entryX=0.675;entryY=0.979;entryDx=0;entryDy=0;exitX=0.5;exitY=0;exitDx=0;exitDy=0;entryPerimeter=0;dashed=1;" edge="1" parent="1" source="rH_akTSNDyo1jkgqadfu-8" target="rH_akTSNDyo1jkgqadfu-44">
          <mxGeometry width="50" height="50" relative="1" as="geometry">
            <mxPoint x="1016" y="-350" as="sourcePoint" />
            <mxPoint x="1045" y="-437" as="targetPoint" />
          </mxGeometry>
        </mxCell>
        <mxCell id="rH_akTSNDyo1jkgqadfu-54" value="" style="endArrow=classic;html=1;rounded=0;strokeWidth=3;exitX=0.961;exitY=0.037;exitDx=0;exitDy=0;exitPerimeter=0;entryX=0.274;entryY=0.951;entryDx=0;entryDy=0;entryPerimeter=0;" edge="1" parent="1" source="rH_akTSNDyo1jkgqadfu-8" target="rH_akTSNDyo1jkgqadfu-47">
          <mxGeometry width="50" height="50" relative="1" as="geometry">
            <mxPoint x="1016" y="-350" as="sourcePoint" />
            <mxPoint x="1220" y="-443" as="targetPoint" />
          </mxGeometry>
        </mxCell>
        <mxCell id="rH_akTSNDyo1jkgqadfu-55" value="" style="endArrow=classic;html=1;rounded=0;strokeWidth=3;entryX=0.5;entryY=1;entryDx=0;entryDy=0;exitX=0.5;exitY=0;exitDx=0;exitDy=0;dashed=1;" edge="1" parent="1" source="rH_akTSNDyo1jkgqadfu-9" target="rH_akTSNDyo1jkgqadfu-47">
          <mxGeometry width="50" height="50" relative="1" as="geometry">
            <mxPoint x="1256" y="-358" as="sourcePoint" />
            <mxPoint x="1230" y="-440" as="targetPoint" />
          </mxGeometry>
        </mxCell>
        <mxCell id="rH_akTSNDyo1jkgqadfu-56" value="" style="endArrow=classic;html=1;rounded=0;strokeWidth=3;exitX=0.028;exitY=0.047;exitDx=0;exitDy=0;exitPerimeter=0;" edge="1" parent="1" source="rH_akTSNDyo1jkgqadfu-9" target="rH_akTSNDyo1jkgqadfu-44">
          <mxGeometry width="50" height="50" relative="1" as="geometry">
            <mxPoint x="1240" y="-350" as="sourcePoint" />
            <mxPoint x="1240" y="-430" as="targetPoint" />
          </mxGeometry>
        </mxCell>
        <mxCell id="rH_akTSNDyo1jkgqadfu-57" value="" style="endArrow=classic;html=1;rounded=0;strokeWidth=3;exitX=0.5;exitY=0;exitDx=0;exitDy=0;entryX=0.5;entryY=1;entryDx=0;entryDy=0;" edge="1" parent="1" source="rH_akTSNDyo1jkgqadfu-44" target="rH_akTSNDyo1jkgqadfu-48">
          <mxGeometry width="50" height="50" relative="1" as="geometry">
            <mxPoint x="1202" y="-346" as="sourcePoint" />
            <mxPoint x="1108" y="-438" as="targetPoint" />
          </mxGeometry>
        </mxCell>
        <mxCell id="rH_akTSNDyo1jkgqadfu-58" value="" style="endArrow=classic;html=1;rounded=0;strokeWidth=3;exitX=0.5;exitY=0;exitDx=0;exitDy=0;entryX=0.819;entryY=0.91;entryDx=0;entryDy=0;entryPerimeter=0;" edge="1" parent="1" source="rH_akTSNDyo1jkgqadfu-47" target="rH_akTSNDyo1jkgqadfu-48">
          <mxGeometry width="50" height="50" relative="1" as="geometry">
            <mxPoint x="1212" y="-336" as="sourcePoint" />
            <mxPoint x="1118" y="-428" as="targetPoint" />
          </mxGeometry>
        </mxCell>
        <mxCell id="rH_akTSNDyo1jkgqadfu-59" value="" style="endArrow=classic;html=1;rounded=0;strokeWidth=3;exitX=0.5;exitY=0;exitDx=0;exitDy=0;entryX=0.5;entryY=1;entryDx=0;entryDy=0;" edge="1" parent="1" source="rH_akTSNDyo1jkgqadfu-7" target="rH_akTSNDyo1jkgqadfu-49">
          <mxGeometry width="50" height="50" relative="1" as="geometry">
            <mxPoint x="1222" y="-326" as="sourcePoint" />
            <mxPoint x="1128" y="-418" as="targetPoint" />
          </mxGeometry>
        </mxCell>
        <mxCell id="rH_akTSNDyo1jkgqadfu-61" value="" style="endArrow=classic;html=1;rounded=0;strokeWidth=3;exitX=0.5;exitY=0;exitDx=0;exitDy=0;entryX=0;entryY=1;entryDx=0;entryDy=0;" edge="1" parent="1" source="rH_akTSNDyo1jkgqadfu-6" target="rH_akTSNDyo1jkgqadfu-49">
          <mxGeometry width="50" height="50" relative="1" as="geometry">
            <mxPoint x="840" y="-350" as="sourcePoint" />
            <mxPoint x="945" y="-860" as="targetPoint" />
          </mxGeometry>
        </mxCell>
        <mxCell id="rH_akTSNDyo1jkgqadfu-62" value="" style="endArrow=classic;html=1;rounded=0;strokeWidth=3;exitX=0.5;exitY=0;exitDx=0;exitDy=0;entryX=0.758;entryY=0.958;entryDx=0;entryDy=0;entryPerimeter=0;" edge="1" parent="1" source="rH_akTSNDyo1jkgqadfu-48" target="rH_akTSNDyo1jkgqadfu-49">
          <mxGeometry width="50" height="50" relative="1" as="geometry">
            <mxPoint x="1075" y="-510" as="sourcePoint" />
            <mxPoint x="1045" y="-660" as="targetPoint" />
          </mxGeometry>
        </mxCell>
        <mxCell id="rH_akTSNDyo1jkgqadfu-64" value="&lt;span style=&quot;font-size: 28px;&quot;&gt;&lt;b&gt;0&lt;/b&gt;&lt;/span&gt;" style="rounded=1;whiteSpace=wrap;html=1;fillColor=#e1d5e7;strokeColor=#9673a6;shadow=1;strokeWidth=3;" vertex="1" parent="1">
          <mxGeometry x="1485" y="-360" width="80" height="80" as="geometry" />
        </mxCell>
        <mxCell id="rH_akTSNDyo1jkgqadfu-65" value="&lt;span style=&quot;font-size: 28px;&quot;&gt;&lt;b&gt;XOR&lt;/b&gt;&lt;/span&gt;" style="ellipse;whiteSpace=wrap;html=1;fillColor=#fff2cc;strokeColor=#d6b656;strokeWidth=3;" vertex="1" parent="1">
          <mxGeometry x="1590" y="-520" width="110" height="80" as="geometry" />
        </mxCell>
        <mxCell id="rH_akTSNDyo1jkgqadfu-66" value="&lt;font style=&quot;font-size: 28px;&quot;&gt;&lt;b&gt;MAJ&lt;/b&gt;&lt;/font&gt;&lt;span style=&quot;color: rgba(0, 0, 0, 0); font-family: monospace; font-size: 0px; text-align: start; text-wrap: nowrap;&quot;&gt;%3CmxGraphModel%3E%3Croot%3E%3CmxCell%20id%3D%220%22%2F%3E%3CmxCell%20id%3D%221%22%20parent%3D%220%22%2F%3E%3CmxCell%20id%3D%222%22%20value%3D%22%26lt%3Bfont%20style%3D%26quot%3Bfont-size%3A%2028px%3B%26quot%3B%26gt%3B%26lt%3Bb%26gt%3BAND%26lt%3B%2Fb%26gt%3B%26lt%3B%2Ffont%26gt%3B%22%20style%3D%22ellipse%3BwhiteSpace%3Dwrap%3Bhtml%3D1%3BfillColor%3D%23fff2cc%3BstrokeColor%3D%23d6b656%3BstrokeWidth%3D3%3B%22%20vertex%3D%221%22%20parent%3D%221%22%3E%3CmxGeometry%20x%3D%22-265%22%20y%3D%22500%22%20width%3D%22110%22%20height%3D%2280%22%20as%3D%22geometry%22%2F%3E%3C%2FmxCell%3E%3C%2Froot%3E%3C%2FmxGraphModel%3E&lt;/span&gt;" style="ellipse;whiteSpace=wrap;html=1;fillColor=#fff2cc;strokeColor=#d6b656;strokeWidth=3;" vertex="1" parent="1">
          <mxGeometry x="1590" y="-750" width="110" height="80" as="geometry" />
        </mxCell>
        <mxCell id="rH_akTSNDyo1jkgqadfu-67" value="" style="endArrow=classic;html=1;rounded=0;strokeWidth=3;exitX=0.5;exitY=0;exitDx=0;exitDy=0;entryX=0.5;entryY=1;entryDx=0;entryDy=0;" edge="1" parent="1" source="rH_akTSNDyo1jkgqadfu-15" target="rH_akTSNDyo1jkgqadfu-65">
          <mxGeometry width="50" height="50" relative="1" as="geometry">
            <mxPoint x="1102" y="-347" as="sourcePoint" />
            <mxPoint x="1125" y="-434" as="targetPoint" />
            <Array as="points">
              <mxPoint x="1645" y="-400" />
            </Array>
          </mxGeometry>
        </mxCell>
        <mxCell id="rH_akTSNDyo1jkgqadfu-68" value="" style="endArrow=classic;html=1;rounded=0;strokeWidth=3;exitX=0.5;exitY=0;exitDx=0;exitDy=0;entryX=0;entryY=1;entryDx=0;entryDy=0;" edge="1" parent="1" source="rH_akTSNDyo1jkgqadfu-64" target="rH_akTSNDyo1jkgqadfu-65">
          <mxGeometry width="50" height="50" relative="1" as="geometry">
            <mxPoint x="1112" y="-337" as="sourcePoint" />
            <mxPoint x="1135" y="-424" as="targetPoint" />
          </mxGeometry>
        </mxCell>
        <mxCell id="rH_akTSNDyo1jkgqadfu-69" value="" style="endArrow=classic;html=1;rounded=0;strokeWidth=3;exitX=0.5;exitY=0;exitDx=0;exitDy=0;entryX=1;entryY=1;entryDx=0;entryDy=0;" edge="1" parent="1" source="rH_akTSNDyo1jkgqadfu-16" target="rH_akTSNDyo1jkgqadfu-65">
          <mxGeometry width="50" height="50" relative="1" as="geometry">
            <mxPoint x="1122" y="-327" as="sourcePoint" />
            <mxPoint x="1145" y="-414" as="targetPoint" />
          </mxGeometry>
        </mxCell>
        <mxCell id="rH_akTSNDyo1jkgqadfu-70" value="" style="endArrow=classic;html=1;rounded=0;strokeWidth=3;exitX=0.5;exitY=0;exitDx=0;exitDy=0;entryX=0;entryY=1;entryDx=0;entryDy=0;" edge="1" parent="1" source="rH_akTSNDyo1jkgqadfu-14" target="rH_akTSNDyo1jkgqadfu-66">
          <mxGeometry width="50" height="50" relative="1" as="geometry">
            <mxPoint x="1132" y="-317" as="sourcePoint" />
            <mxPoint x="1155" y="-404" as="targetPoint" />
          </mxGeometry>
        </mxCell>
        <mxCell id="rH_akTSNDyo1jkgqadfu-72" value="" style="endArrow=classic;html=1;rounded=0;strokeWidth=3;exitX=0.5;exitY=0;exitDx=0;exitDy=0;entryX=1;entryY=1;entryDx=0;entryDy=0;" edge="1" parent="1" source="rH_akTSNDyo1jkgqadfu-17" target="rH_akTSNDyo1jkgqadfu-66">
          <mxGeometry width="50" height="50" relative="1" as="geometry">
            <mxPoint x="1415" y="-350" as="sourcePoint" />
            <mxPoint x="1616" y="-672" as="targetPoint" />
          </mxGeometry>
        </mxCell>
        <mxCell id="rH_akTSNDyo1jkgqadfu-73" value="" style="endArrow=classic;html=1;rounded=0;strokeWidth=3;exitX=0.5;exitY=0;exitDx=0;exitDy=0;entryX=0.5;entryY=1;entryDx=0;entryDy=0;" edge="1" parent="1" source="rH_akTSNDyo1jkgqadfu-65" target="rH_akTSNDyo1jkgqadfu-66">
          <mxGeometry width="50" height="50" relative="1" as="geometry">
            <mxPoint x="1655" y="-350" as="sourcePoint" />
            <mxPoint x="1655" y="-430" as="targetPoint" />
          </mxGeometry>
        </mxCell>
        <mxCell id="rH_akTSNDyo1jkgqadfu-74" value="&lt;font style=&quot;font-size: 28px;&quot;&gt;&lt;b&gt;PO&lt;sub&gt;0&lt;/sub&gt;&lt;/b&gt;&lt;/font&gt;" style="triangle;whiteSpace=wrap;html=1;direction=south;fillColor=#f8cecc;strokeColor=#b85450;strokeWidth=3;" vertex="1" parent="1">
          <mxGeometry x="145" y="-1160" width="150" height="70" as="geometry" />
        </mxCell>
        <mxCell id="rH_akTSNDyo1jkgqadfu-75" value="" style="endArrow=classic;html=1;rounded=0;strokeWidth=3;exitX=0.5;exitY=0;exitDx=0;exitDy=0;entryX=1;entryY=0.5;entryDx=0;entryDy=0;" edge="1" parent="1" source="rH_akTSNDyo1jkgqadfu-25" target="rH_akTSNDyo1jkgqadfu-74">
          <mxGeometry width="50" height="50" relative="1" as="geometry">
            <mxPoint x="340" y="-980" as="sourcePoint" />
            <mxPoint x="340" y="-1060" as="targetPoint" />
          </mxGeometry>
        </mxCell>
        <mxCell id="rH_akTSNDyo1jkgqadfu-76" value="&lt;font style=&quot;font-size: 28px;&quot;&gt;&lt;b&gt;PO&lt;sub&gt;0&lt;/sub&gt;&lt;/b&gt;&lt;/font&gt;" style="triangle;whiteSpace=wrap;html=1;direction=south;fillColor=#f8cecc;strokeColor=#b85450;strokeWidth=3;" vertex="1" parent="1">
          <mxGeometry x="1570" y="-900" width="150" height="70" as="geometry" />
        </mxCell>
        <mxCell id="rH_akTSNDyo1jkgqadfu-77" value="&lt;font style=&quot;font-size: 28px;&quot;&gt;&lt;b&gt;PO&lt;sub&gt;0&lt;/sub&gt;&lt;/b&gt;&lt;/font&gt;" style="triangle;whiteSpace=wrap;html=1;direction=south;fillColor=#f8cecc;strokeColor=#b85450;strokeWidth=3;" vertex="1" parent="1">
          <mxGeometry x="860" y="-1100" width="150" height="70" as="geometry" />
        </mxCell>
        <mxCell id="rH_akTSNDyo1jkgqadfu-78" value="" style="endArrow=classic;html=1;rounded=0;strokeWidth=3;exitX=0.5;exitY=0;exitDx=0;exitDy=0;entryX=1;entryY=0.5;entryDx=0;entryDy=0;" edge="1" parent="1" source="rH_akTSNDyo1jkgqadfu-49" target="rH_akTSNDyo1jkgqadfu-77">
          <mxGeometry width="50" height="50" relative="1" as="geometry">
            <mxPoint x="934.4099999999999" y="-960" as="sourcePoint" />
            <mxPoint x="934.4099999999999" y="-1030" as="targetPoint" />
            <Array as="points">
              <mxPoint x="935" y="-990" />
            </Array>
          </mxGeometry>
        </mxCell>
        <mxCell id="rH_akTSNDyo1jkgqadfu-80" value="" style="endArrow=classic;html=1;rounded=0;strokeWidth=3;exitX=0.5;exitY=0;exitDx=0;exitDy=0;entryX=1;entryY=0.5;entryDx=0;entryDy=0;" edge="1" parent="1" source="rH_akTSNDyo1jkgqadfu-66" target="rH_akTSNDyo1jkgqadfu-76">
          <mxGeometry width="50" height="50" relative="1" as="geometry">
            <mxPoint x="1655" y="-350" as="sourcePoint" />
            <mxPoint x="1655" y="-430" as="targetPoint" />
          </mxGeometry>
        </mxCell>
        <mxCell id="rH_akTSNDyo1jkgqadfu-84" value="&lt;font size=&quot;1&quot; style=&quot;&quot;&gt;&lt;b style=&quot;font-size: 36px;&quot;&gt;AIG&lt;/b&gt;&lt;/font&gt;" style="text;html=1;align=center;verticalAlign=middle;whiteSpace=wrap;rounded=0;" vertex="1" parent="1">
          <mxGeometry x="212.5" y="-210" width="165" height="70" as="geometry" />
        </mxCell>
        <mxCell id="rH_akTSNDyo1jkgqadfu-87" value="&lt;font size=&quot;1&quot; style=&quot;&quot;&gt;&lt;b style=&quot;font-size: 36px;&quot;&gt;MIG&lt;/b&gt;&lt;/font&gt;" style="text;html=1;align=center;verticalAlign=middle;whiteSpace=wrap;rounded=0;" vertex="1" parent="1">
          <mxGeometry x="852.5" y="-210" width="165" height="70" as="geometry" />
        </mxCell>
        <mxCell id="rH_akTSNDyo1jkgqadfu-88" value="&lt;font size=&quot;1&quot; style=&quot;&quot;&gt;&lt;b style=&quot;font-size: 36px;&quot;&gt;XMG&lt;/b&gt;&lt;/font&gt;" style="text;html=1;align=center;verticalAlign=middle;whiteSpace=wrap;rounded=0;" vertex="1" parent="1">
          <mxGeometry x="1562.5" y="-210" width="165" height="70" as="geometry" />
        </mxCell>
      </root>
    </mxGraphModel>
  </diagram>
</mxfile>
